<svg xmlns="http://www.w3.org/2000/svg" xmlns:xlink="http://www.w3.org/1999/xlink" version="1.1" width="256" height="256" viewBox="0 0 256 256" xml:space="preserve">
<desc>Created with Fabric.js 1.7.22</desc>
<defs>
</defs>
<g transform="translate(128 128) scale(0.87 0.87)" style="">
	<g style="stroke: none; stroke-width: 0; stroke-dasharray: none; stroke-linecap: butt; stroke-linejoin: miter; stroke-miterlimit: 10; fill: none; fill-rule: nonzero; opacity: 1;" transform="translate(-144.89999999999998 -144.90000000000003) scale(3.22 3.22)" >
	<circle cx="45" cy="45" r="45" style="stroke: none; stroke-width: 1; stroke-dasharray: none; stroke-linecap: butt; stroke-linejoin: miter; stroke-miterlimit: 10; fill: rgb(32,196,203); fill-rule: nonzero; opacity: 1;" transform="  matrix(1 0 0 1 0 0) "/>
	<path d="M 54.654 19.773 H 23.802 c -1.011 0 -1.83 0.819 -1.83 1.83 V 74.67 c 0 1.011 0.819 1.83 1.83 1.83 h 38.123 c 1.011 0 1.83 -0.819 1.83 -1.83 V 28.535 L 54.654 19.773 z M 27.402 28.007 h 15.461 v 4.221 H 27.402 V 28.007 z M 27.402 35.327 h 30.923 v 4.221 H 27.402 V 35.327 z M 27.402 42.647 h 30.923 v 4.221 H 27.402 V 42.647 z M 27.402 49.909 h 30.923 v 4.221 H 27.402 V 49.909 z M 42.972 68.655 h -15.57 v -4.221 h 15.57 V 68.655 z M 42.972 61.393 h -15.57 v -4.221 h 15.57 V 61.393 z M 57.51 71.627 l -1.08 2.19 l -3.163 -4.518 l -3.163 4.518 l -1.08 -2.19 l -2.427 -0.266 l 3.51 -5.013 c -1.2 -0.94 -1.975 -2.399 -1.975 -4.042 c 0 -2.836 2.299 -5.135 5.135 -5.135 c 2.836 0 5.135 2.299 5.135 5.135 c 0 1.643 -0.774 3.102 -1.975 4.042 l 3.51 5.013 L 57.51 71.627 z M 54.654 30.365 c -1.011 0 -1.83 -0.819 -1.83 -1.83 v -6.933 l 9.101 8.763 H 54.654 z" style="stroke: none; stroke-width: 1; stroke-dasharray: none; stroke-linecap: butt; stroke-linejoin: miter; stroke-miterlimit: 10; fill: rgb(27,167,173); fill-rule: nonzero; opacity: 1;" transform=" matrix(1 0 0 1 0 0) " stroke-linecap="round" />
	<path d="M 57.927 16.5 H 27.075 c -1.011 0 -1.83 0.819 -1.83 1.83 v 53.067 c 0 1.011 0.819 1.83 1.83 1.83 h 38.123 c 1.011 0 1.83 -0.819 1.83 -1.83 V 25.263 L 57.927 16.5 z M 30.675 24.735 h 15.461 v 4.221 H 30.675 V 24.735 z M 30.675 32.054 h 30.923 v 4.221 H 30.675 V 32.054 z M 30.675 39.374 h 30.923 v 4.221 H 30.675 V 39.374 z M 30.675 46.636 h 30.923 v 4.221 H 30.675 V 46.636 z M 46.245 65.382 h -15.57 v -4.221 h 15.57 V 65.382 z M 46.245 58.12 h -15.57 v -4.221 h 15.57 V 58.12 z M 60.782 68.354 l -1.08 2.19 l -3.163 -4.518 l -3.163 4.518 l -1.08 -2.19 l -2.427 -0.266 l 3.51 -5.013 c -1.2 -0.94 -1.975 -2.399 -1.975 -4.042 c 0 -2.836 2.299 -5.135 5.135 -5.135 c 2.836 0 5.135 2.299 5.135 5.135 c 0 1.643 -0.774 3.102 -1.975 4.042 l 3.51 5.013 L 60.782 68.354 z M 57.927 27.093 c -1.011 0 -1.83 -0.819 -1.83 -1.83 V 18.33 l 9.101 8.763 H 57.927 z" style="stroke: none; stroke-width: 1; stroke-dasharray: none; stroke-linecap: butt; stroke-linejoin: miter; stroke-miterlimit: 10; fill: rgb(255,255,255); fill-rule: nonzero; opacity: 1;" transform=" matrix(1 0 0 1 0 0) " stroke-linecap="round" />
</g>
</g>
</svg>