<svg xmlns="http://www.w3.org/2000/svg" xmlns:xlink="http://www.w3.org/1999/xlink" version="1.1" width="256" height="256" viewBox="0 0 256 256" xml:space="preserve">
<desc>Created with Fabric.js 1.7.22</desc>
<defs>
</defs>
<g transform="translate(128 128) scale(0.87 0.87)" style="">
	<g style="stroke: none; stroke-width: 0; stroke-dasharray: none; stroke-linecap: butt; stroke-linejoin: miter; stroke-miterlimit: 10; fill: none; fill-rule: nonzero; opacity: 1;" transform="translate(-144.89999999999998 -144.90000000000003) scale(3.22 3.22)" >
	<path d="M 82.229 64.706 H 7.771 V 19.495 c 0 -2.818 2.285 -5.103 5.103 -5.103 h 64.253 c 2.818 0 5.103 2.285 5.103 5.103 V 64.706 z" style="stroke: none; stroke-width: 1; stroke-dasharray: none; stroke-linecap: butt; stroke-linejoin: miter; stroke-miterlimit: 10; fill: rgb(240,240,240); fill-rule: nonzero; opacity: 1;" transform=" matrix(1 0 0 1 0 0) " stroke-linecap="round" />
	<path d="M 79.098 75.608 H 10.902 C 4.881 75.608 0 70.727 0 64.706 v 0 h 90 v 0 C 90 70.727 85.119 75.608 79.098 75.608 z" style="stroke: none; stroke-width: 1; stroke-dasharray: none; stroke-linecap: butt; stroke-linejoin: miter; stroke-miterlimit: 10; fill: rgb(71,123,158); fill-rule: nonzero; opacity: 1;" transform=" matrix(1 0 0 1 0 0) " stroke-linecap="round" />
	<path d="M 82.229 67.752 H 7.771 c -0.552 0 -1 -0.447 -1 -1 V 19.495 c 0 -3.365 2.738 -6.103 6.103 -6.103 h 64.252 c 3.365 0 6.104 2.738 6.104 6.103 v 47.257 C 83.229 67.305 82.782 67.752 82.229 67.752 z M 8.771 65.752 h 72.459 V 19.495 c 0 -2.262 -1.841 -4.103 -4.104 -4.103 H 12.874 c -2.262 0 -4.103 1.841 -4.103 4.103 V 65.752 z" style="stroke: none; stroke-width: 1; stroke-dasharray: none; stroke-linecap: butt; stroke-linejoin: miter; stroke-miterlimit: 10; fill: rgb(71,123,158); fill-rule: nonzero; opacity: 1;" transform=" matrix(1 0 0 1 0 0) " stroke-linecap="round" />
	<path d="M 37.921 64.706 v 2.341 c 0 2.2 1.783 3.983 3.983 3.983 h 6.192 c 2.2 0 3.983 -1.783 3.983 -3.983 v -2.341 H 37.921 z" style="stroke: none; stroke-width: 1; stroke-dasharray: none; stroke-linecap: butt; stroke-linejoin: miter; stroke-miterlimit: 10; fill: rgb(54,94,125); fill-rule: nonzero; opacity: 1;" transform=" matrix(1 0 0 1 0 0) " stroke-linecap="round" />
	<path d="M 57.631 39.201 l 1.743 -0.573 l 11.711 -3.848 c 0.803 -0.264 0.803 -1.4 0 -1.663 L 47.57 25.391 c -1.669 -0.549 -3.471 -0.549 -5.14 0 l -23.515 7.726 c -0.803 0.264 -0.803 1.4 0 1.663 l 11.669 3.834 l 1.785 0.586 L 57.631 39.201 z" style="stroke: none; stroke-width: 1; stroke-dasharray: none; stroke-linecap: butt; stroke-linejoin: miter; stroke-miterlimit: 10; fill: rgb(54,94,125); fill-rule: nonzero; opacity: 1;" transform=" matrix(1 0 0 1 0 0) " stroke-linecap="round" />
	<path d="M 57.631 48.936 v -13.45 c 0 -1.592 -5.655 -2.882 -12.631 -2.882 s -12.631 1.29 -12.631 2.882 v 3.716 v 9.735 H 57.631 z" style="stroke: none; stroke-width: 1; stroke-dasharray: none; stroke-linecap: butt; stroke-linejoin: miter; stroke-miterlimit: 10; fill: rgb(71,123,158); fill-rule: nonzero; opacity: 1;" transform=" matrix(1 0 0 1 0 0) " stroke-linecap="round" />
	<ellipse cx="45.001" cy="48.931999999999995" rx="12.631" ry="2.882" style="stroke: none; stroke-width: 1; stroke-dasharray: none; stroke-linecap: butt; stroke-linejoin: miter; stroke-miterlimit: 10; fill: rgb(54,94,125); fill-rule: nonzero; opacity: 1;" transform=" matrix(1 0 0 1 0 0) "/>
	<path d="M 62.817 30.4 v 20.371 c 0 0.578 0.468 1.046 1.046 1.046 s 1.046 -0.468 1.046 -1.046 V 31.088 C 64.212 30.563 63.515 30.334 62.817 30.4 z" style="stroke: none; stroke-width: 1; stroke-dasharray: none; stroke-linecap: butt; stroke-linejoin: miter; stroke-miterlimit: 10; fill: rgb(255,224,125); fill-rule: nonzero; opacity: 1;" transform=" matrix(1 0 0 1 0 0) " stroke-linecap="round" />
</g>
</g>
</svg>