<svg xmlns="http://www.w3.org/2000/svg" xmlns:xlink="http://www.w3.org/1999/xlink" version="1.1" width="256" height="256" viewBox="0 0 256 256" xml:space="preserve">
<desc>Created with Fabric.js 1.7.22</desc>
<defs>
</defs>
<g transform="translate(128 128) scale(0.87 0.87)" style="">
	<g style="stroke: none; stroke-width: 0; stroke-dasharray: none; stroke-linecap: butt; stroke-linejoin: miter; stroke-miterlimit: 10; fill: none; fill-rule: nonzero; opacity: 1;" transform="translate(-144.89999999999998 -144.90000000000003) scale(3.22 3.22)" >
	<path d="M 47.996 1.391 H 4.055 C 2.368 1.391 1 2.759 1 4.447 v 50.129 v 30.977 c 0 1.688 1.368 3.056 3.055 3.056 h 58.663 c 1.687 0 3.055 -1.368 3.055 -3.056 V 54.576 V 19.169 C 57.018 14.627 50.959 8.766 47.996 1.391 z" style="stroke: none; stroke-width: 1; stroke-dasharray: none; stroke-linecap: butt; stroke-linejoin: miter; stroke-miterlimit: 10; fill: rgb(128,170,255); fill-rule: nonzero; opacity: 1;" transform=" matrix(1 0 0 1 0 0) " stroke-linecap="round" />
	<path d="M 65.774 19.169 H 50.78 c -1.538 0 -2.784 -1.246 -2.784 -2.784 V 1.391 L 65.774 19.169 z" style="stroke: none; stroke-width: 1; stroke-dasharray: none; stroke-linecap: butt; stroke-linejoin: miter; stroke-miterlimit: 10; fill: rgb(225,230,240); fill-rule: nonzero; opacity: 1;" transform=" matrix(1 0 0 1 0 0) " stroke-linecap="round" />
	<path d="M 19.906 30.18 c 5.147 -0.741 9.695 -2.585 13.48 -5.835 c 3.785 3.249 8.333 5.093 13.48 5.835 c 0 0 0 14.33 0 14.33 c 0 7.257 -5.625 13.432 -13.48 15.729 c -7.855 -2.297 -13.48 -8.472 -13.48 -15.729 C 19.906 44.51 19.906 30.18 19.906 30.18 z" style="stroke: none; stroke-width: 1; stroke-dasharray: none; stroke-linecap: butt; stroke-linejoin: miter; stroke-miterlimit: 10; fill: rgb(255,190,64); fill-rule: nonzero; opacity: 1;" transform=" matrix(1 0 0 1 0 0) " stroke-linecap="round" />
	<path d="M 33.387 61.238 c -0.095 0 -0.189 -0.014 -0.281 -0.04 c -8.493 -2.483 -14.2 -9.19 -14.2 -16.688 V 30.18 c 0 -0.497 0.365 -0.919 0.857 -0.99 c 5.211 -0.751 9.454 -2.584 12.972 -5.604 c 0.375 -0.321 0.928 -0.321 1.303 0 c 3.518 3.02 7.761 4.853 12.972 5.604 c 0.492 0.071 0.857 0.493 0.857 0.99 v 14.33 c 0 7.498 -5.707 14.205 -14.2 16.688 C 33.576 61.225 33.481 61.238 33.387 61.238 z M 20.906 31.035 V 44.51 c 0 6.521 5.003 12.391 12.48 14.685 c 7.478 -2.294 12.48 -8.164 12.48 -14.685 V 31.035 c -4.842 -0.824 -9.034 -2.635 -12.48 -5.392 C 29.94 28.4 25.749 30.21 20.906 31.035 z" style="stroke: none; stroke-width: 1; stroke-dasharray: none; stroke-linecap: butt; stroke-linejoin: miter; stroke-miterlimit: 10; fill: rgb(0,0,0); fill-rule: nonzero; opacity: 1;" transform=" matrix(1 0 0 1 0 0) " stroke-linecap="round" />
	<path d="M 32.512 47.932 c -0.003 0 -0.005 0 -0.008 0 c -0.291 -0.003 -0.566 -0.131 -0.754 -0.353 l -3.938 -4.641 c -0.357 -0.421 -0.306 -1.052 0.116 -1.41 c 0.421 -0.356 1.052 -0.305 1.41 0.116 l 3.188 3.756 l 7.496 -8.541 c 0.363 -0.415 0.997 -0.457 1.411 -0.092 c 0.415 0.364 0.456 0.996 0.092 1.411 l -8.26 9.412 C 33.074 47.808 32.8 47.932 32.512 47.932 z" style="stroke: none; stroke-width: 1; stroke-dasharray: none; stroke-linecap: butt; stroke-linejoin: miter; stroke-miterlimit: 10; fill: rgb(0,0,0); fill-rule: nonzero; opacity: 1;" transform=" matrix(1 0 0 1 0 0) " stroke-linecap="round" />
	<path d="M 65.773 20.169 H 50.78 c -2.087 0 -3.784 -1.698 -3.784 -3.784 V 1.391 h 2 v 14.994 c 0 0.984 0.801 1.784 1.784 1.784 h 14.993 V 20.169 z" style="stroke: none; stroke-width: 1; stroke-dasharray: none; stroke-linecap: butt; stroke-linejoin: miter; stroke-miterlimit: 10; fill: rgb(0,0,0); fill-rule: nonzero; opacity: 1;" transform=" matrix(1 0 0 1 0 0) " stroke-linecap="round" />
	<path d="M 62.718 89.608 H 4.056 C 1.819 89.608 0 87.789 0 85.553 V 4.447 C 0 2.21 1.819 0.391 4.056 0.391 H 46.73 c 1.083 0 2.102 0.422 2.868 1.188 l 15.987 15.988 c 0.766 0.765 1.188 1.784 1.188 2.868 v 65.118 C 66.773 87.789 64.954 89.608 62.718 89.608 z M 4.056 2.391 C 2.922 2.391 2 3.313 2 4.447 v 81.106 c 0 1.134 0.922 2.056 2.056 2.056 h 58.662 c 1.134 0 2.056 -0.922 2.056 -2.056 V 20.435 c 0 -0.55 -0.214 -1.066 -0.602 -1.453 L 48.185 2.993 c -0.389 -0.388 -0.905 -0.602 -1.454 -0.602 H 4.056 z" style="stroke: none; stroke-width: 1; stroke-dasharray: none; stroke-linecap: butt; stroke-linejoin: miter; stroke-miterlimit: 10; fill: rgb(0,0,0); fill-rule: nonzero; opacity: 1;" transform=" matrix(1 0 0 1 0 0) " stroke-linecap="round" />
	<path d="M 46.601 66.064 l -4.939 12.359 l 12.359 -4.939 l 33.443 -33.443 c 2.049 -2.049 2.049 -5.371 0 -7.42 s -5.371 -2.049 -7.42 0 L 46.601 66.064 z" style="stroke: none; stroke-width: 1; stroke-dasharray: none; stroke-linecap: butt; stroke-linejoin: miter; stroke-miterlimit: 10; fill: rgb(102,128,255); fill-rule: nonzero; opacity: 1;" transform=" matrix(1 0 0 1 0 0) " stroke-linecap="round" />
	<polygon points="46.6,66.06 41.66,78.42 54.02,73.48 " style="stroke: none; stroke-width: 1; stroke-dasharray: none; stroke-linecap: butt; stroke-linejoin: miter; stroke-miterlimit: 10; fill: rgb(204,204,204); fill-rule: nonzero; opacity: 1;" transform="  matrix(1 0 0 1 0 0) "/>
	<path d="M 80.043 32.622 c 2.049 -2.049 5.371 -2.049 7.42 0 s 2.049 5.371 0 7.42 l -2.718 2.718 l -7.42 -7.42 L 80.043 32.622 z" style="stroke: none; stroke-width: 1; stroke-dasharray: none; stroke-linecap: butt; stroke-linejoin: miter; stroke-miterlimit: 10; fill: rgb(204,204,204); fill-rule: nonzero; opacity: 1;" transform=" matrix(1 0 0 1 0 0) " stroke-linecap="round" />
	<path d="M 41.661 79.424 c -0.26 0 -0.516 -0.102 -0.707 -0.293 c -0.283 -0.282 -0.37 -0.707 -0.222 -1.078 l 4.939 -12.359 c 0.05 -0.126 0.126 -0.24 0.222 -0.336 l 33.442 -33.443 c 2.436 -2.436 6.398 -2.436 8.834 0 c 1.181 1.18 1.83 2.749 1.83 4.417 c 0 1.669 -0.649 3.237 -1.83 4.417 L 54.728 74.191 c -0.096 0.096 -0.21 0.171 -0.336 0.222 l -12.359 4.939 C 41.912 79.4 41.786 79.424 41.661 79.424 z M 47.453 66.626 L 43.455 76.63 l 10.004 -3.998 l 33.297 -33.297 C 87.559 38.532 88 37.466 88 36.332 s -0.441 -2.201 -1.244 -3.003 c -0.802 -0.802 -1.868 -1.244 -3.003 -1.244 s -2.201 0.442 -3.003 1.244 L 47.453 66.626 z" style="stroke: none; stroke-width: 1; stroke-dasharray: none; stroke-linecap: butt; stroke-linejoin: miter; stroke-miterlimit: 10; fill: rgb(0,0,0); fill-rule: nonzero; opacity: 1;" transform=" matrix(1 0 0 1 0 0) " stroke-linecap="round" />
	<path d="M 41.661 79.424 c -0.26 0 -0.516 -0.102 -0.707 -0.293 c -0.283 -0.282 -0.37 -0.707 -0.222 -1.078 l 4.939 -12.359 c 0.125 -0.313 0.398 -0.541 0.728 -0.608 c 0.326 -0.066 0.67 0.034 0.908 0.272 l 7.42 7.42 c 0.238 0.237 0.34 0.579 0.272 0.908 s -0.296 0.603 -0.608 0.728 l -12.359 4.939 C 41.912 79.4 41.786 79.424 41.661 79.424 z M 46.966 67.845 l -3.511 8.785 l 8.785 -3.511 L 46.966 67.845 z" style="stroke: none; stroke-width: 1; stroke-dasharray: none; stroke-linecap: butt; stroke-linejoin: miter; stroke-miterlimit: 10; fill: rgb(0,0,0); fill-rule: nonzero; opacity: 1;" transform=" matrix(1 0 0 1 0 0) " stroke-linecap="round" />
	<path d="M 84.746 43.759 c -0.265 0 -0.52 -0.105 -0.707 -0.293 l -7.421 -7.42 c -0.188 -0.188 -0.293 -0.442 -0.293 -0.707 s 0.105 -0.52 0.293 -0.707 l 2.718 -2.718 c 2.436 -2.436 6.398 -2.436 8.834 0 c 1.181 1.18 1.83 2.749 1.83 4.417 c 0 1.669 -0.649 3.237 -1.83 4.417 l -2.717 2.718 C 85.266 43.654 85.012 43.759 84.746 43.759 z M 78.739 35.339 l 6.007 6.006 l 2.01 -2.011 C 87.559 38.532 88 37.466 88 36.332 s -0.441 -2.201 -1.244 -3.003 c -1.656 -1.655 -4.35 -1.655 -6.006 0 L 78.739 35.339 z" style="stroke: none; stroke-width: 1; stroke-dasharray: none; stroke-linecap: butt; stroke-linejoin: miter; stroke-miterlimit: 10; fill: rgb(0,0,0); fill-rule: nonzero; opacity: 1;" transform=" matrix(1 0 0 1 0 0) " stroke-linecap="round" />
	<path d="M 72.686 62.58 c -0.256 0 -0.512 -0.098 -0.707 -0.293 c -0.391 -0.391 -0.391 -1.023 0 -1.414 l 12.061 -12.06 c 1.474 -1.475 1.474 -3.873 0 -5.347 c -0.391 -0.391 -0.391 -1.024 0 -1.415 c 0.391 -0.39 1.023 -0.39 1.414 0 c 2.253 2.254 2.253 5.921 0 8.175 l -12.061 12.06 C 73.197 62.482 72.941 62.58 72.686 62.58 z" style="stroke: none; stroke-width: 1; stroke-dasharray: none; stroke-linecap: butt; stroke-linejoin: miter; stroke-miterlimit: 10; fill: rgb(0,0,0); fill-rule: nonzero; opacity: 1;" transform=" matrix(1 0 0 1 0 0) " stroke-linecap="round" />
	<path d="M 33.148 79.424 H 12.731 c -0.552 0 -1 -0.447 -1 -1 s 0.448 -1 1 -1 h 20.417 c 0.552 0 1 0.447 1 1 S 33.701 79.424 33.148 79.424 z" style="stroke: none; stroke-width: 1; stroke-dasharray: none; stroke-linecap: butt; stroke-linejoin: miter; stroke-miterlimit: 10; fill: rgb(0,0,0); fill-rule: nonzero; opacity: 1;" transform=" matrix(1 0 0 1 0 0) " stroke-linecap="round" />
</g>
</g>
</svg>